#tb 0: 1/1
#media_type 0: video
#codec_id 0: rawvideo
#dimensions 0: 319x240
#sar 0: 1/1
0,          0,          0,        1,   306240, 0x464230c2
0,          1,          1,        1,   306240, 0xd658b7fd
0,          2,          2,        1,   306240, 0xa359b9be
0,          3,          3,        1,   306240, 0xb167e567
0,          4,          4,        1,   306240, 0xdc8414d4
